<?xml version="1.0" encoding="iso-8859-1"?>

<!DOCTYPE svg PUBLIC "-//W3C//DTD SVG 1.1//EN" "http://www.w3.org/Graphics/SVG/1.1/DTD/svg11.dtd">
<!-- Uploaded to: SVG Repo, www.svgrepo.com, Generator: SVG Repo Mixer Tools -->
<svg height="800px" width="800px" version="1.1" id="_x35_" xmlns="http://www.w3.org/2000/svg" xmlns:xlink="http://www.w3.org/1999/xlink" 
	 viewBox="0 0 512 512"  xml:space="preserve">
<g>
	<g>
		<path style="fill:#F2C677;" d="M512,131.027l-23.527,23.451l-69.523,69.598L275.971,366.903l-69.522,69.598L130.95,512
			c-18.232-1.588-36.237-6.581-52.879-15.13c-3.329-1.664-6.582-3.48-9.759-5.447c-9.532-5.75-18.459-12.784-26.704-21.031
			c-8.246-8.245-15.282-17.173-21.031-26.703c-1.967-3.179-3.782-6.431-5.447-9.759C6.582,417.285,1.513,399.282,0,381.049
			l75.499-75.499l69.522-69.598L288,93.126l69.522-69.524L381.05,0c20.88,1.816,41.38,8.095,59.991,19.064
			c0.983,0.53,1.891,1.058,2.875,1.664c9.456,5.749,18.307,12.709,26.478,20.88c8.095,8.095,15.054,17.021,20.804,26.402
			c0.605,0.983,1.134,1.891,1.664,2.874C503.905,89.495,510.26,110.071,512,131.027z"/>
		<g>
			<g>
				<circle style="fill:#FEF1DD;" cx="57.67" cy="379.55" r="5.35"/>
				<circle style="fill:#FEF1DD;" cx="80.66" cy="356.56" r="5.35"/>
				<circle style="fill:#FEF1DD;" cx="103.651" cy="333.569" r="5.35"/>
				<circle style="fill:#FEF1DD;" cx="126.641" cy="310.579" r="5.35"/>
				<circle style="fill:#FEF1DD;" cx="149.632" cy="287.588" r="5.35"/>
				<circle style="fill:#FEF1DD;" cx="172.623" cy="264.597" r="5.35"/>
				<circle style="fill:#FEF1DD;" cx="195.613" cy="241.607" r="5.35"/>
				<circle style="fill:#FEF1DD;" cx="218.604" cy="218.616" r="5.35"/>
				<circle style="fill:#FEF1DD;" cx="63.199" cy="408.361" r="5.35"/>
				<circle style="fill:#FEF1DD;" cx="86.19" cy="385.371" r="5.35"/>
				<circle style="fill:#FEF1DD;" cx="109.18" cy="362.38" r="5.35"/>
				<circle style="fill:#FEF1DD;" cx="132.171" cy="339.39" r="5.35"/>
				<circle style="fill:#FEF1DD;" cx="155.161" cy="316.399" r="5.35"/>
				<circle style="fill:#FEF1DD;" cx="178.152" cy="293.408" r="5.35"/>
				<circle style="fill:#FEF1DD;" cx="201.143" cy="270.418" r="5.35"/>
				<circle style="fill:#FEF1DD;" cx="224.133" cy="247.427" r="5.35"/>
				<circle style="fill:#FEF1DD;" cx="72.075" cy="439.937" r="5.35"/>
				<circle style="fill:#FEF1DD;" cx="95.066" cy="416.946" r="5.35"/>
				<circle style="fill:#FEF1DD;" cx="118.056" cy="393.956" r="5.35"/>
				<circle style="fill:#FEF1DD;" cx="141.047" cy="370.965" r="5.35"/>
				<circle style="fill:#FEF1DD;" cx="164.037" cy="347.975" r="5.35"/>
				<circle style="fill:#FEF1DD;" cx="187.028" cy="324.984" r="5.35"/>
				<circle style="fill:#FEF1DD;" cx="210.019" cy="301.993" r="5.35"/>
				<circle style="fill:#FEF1DD;" cx="233.009" cy="279.003" r="5.35"/>
				<circle style="fill:#FEF1DD;" cx="256" cy="256.012" r="5.35"/>
				<circle style="fill:#FEF1DD;" cx="100.595" cy="445.757" r="5.35"/>
				<circle style="fill:#FEF1DD;" cx="123.586" cy="422.767" r="5.35"/>
				<circle style="fill:#FEF1DD;" cx="146.576" cy="399.776" r="5.35"/>
				<circle style="fill:#FEF1DD;" cx="169.567" cy="376.786" r="5.35"/>
				<circle style="fill:#FEF1DD;" cx="192.557" cy="353.795" r="5.35"/>
				<circle style="fill:#FEF1DD;" cx="215.548" cy="330.804" r="5.35"/>
				<circle style="fill:#FEF1DD;" cx="238.539" cy="307.814" r="5.35"/>
				<circle style="fill:#FEF1DD;" cx="261.529" cy="284.823" r="5.35"/>
				<circle style="fill:#FEF1DD;" cx="132.462" cy="454.342" r="5.35"/>
				<circle style="fill:#FEF1DD;" cx="155.452" cy="431.352" r="5.35"/>
				<circle style="fill:#FEF1DD;" cx="178.443" cy="408.361" r="5.35"/>
				<circle style="fill:#FEF1DD;" cx="201.434" cy="385.371" r="5.35"/>
				<circle style="fill:#FEF1DD;" cx="224.424" cy="362.38" r="5.35"/>
				<circle style="fill:#FEF1DD;" cx="247.415" cy="339.39" r="5.35"/>
				<circle style="fill:#FEF1DD;" cx="270.405" cy="316.399" r="5.35"/>
				<circle style="fill:#FEF1DD;" cx="293.396" cy="293.408" r="5.35"/>
			</g>
			<g>
				<circle style="fill:#FEF1DD;" cx="379.538" cy="57.682" r="5.35"/>
				<circle style="fill:#FEF1DD;" cx="356.547" cy="80.673" r="5.35"/>
				<circle style="fill:#FEF1DD;" cx="333.557" cy="103.663" r="5.35"/>
				<circle style="fill:#FEF1DD;" cx="310.566" cy="126.654" r="5.35"/>
				<circle style="fill:#FEF1DD;" cx="287.575" cy="149.645" r="5.35"/>
				<circle style="fill:#FEF1DD;" cx="264.585" cy="172.635" r="5.35"/>
				<circle style="fill:#FEF1DD;" cx="241.594" cy="195.626" r="5.35"/>
				<circle style="fill:#FEF1DD;" cx="218.604" cy="218.616" r="5.35"/>
				<circle style="fill:#FEF1DD;" cx="408.349" cy="63.212" r="5.35"/>
				<circle style="fill:#FEF1DD;" cx="385.358" cy="86.202" r="5.35"/>
				<circle style="fill:#FEF1DD;" cx="362.368" cy="109.193" r="5.35"/>
				<circle style="fill:#FEF1DD;" cx="339.377" cy="132.183" r="5.35"/>
				<circle style="fill:#FEF1DD;" cx="316.386" cy="155.174" r="5.35"/>
				<circle style="fill:#FEF1DD;" cx="293.396" cy="178.164" r="5.35"/>
				<circle style="fill:#FEF1DD;" cx="270.405" cy="201.155" r="5.35"/>
				<circle style="fill:#FEF1DD;" cx="247.415" cy="224.146" r="5.35"/>
				<circle style="fill:#FEF1DD;" cx="439.924" cy="72.088" r="5.35"/>
				<circle style="fill:#FEF1DD;" cx="416.934" cy="95.078" r="5.35"/>
				<circle style="fill:#FEF1DD;" cx="393.943" cy="118.069" r="5.35"/>
				<circle style="fill:#FEF1DD;" cx="370.953" cy="141.059" r="5.35"/>
				<circle style="fill:#FEF1DD;" cx="347.962" cy="164.05" r="5.35"/>
				<circle style="fill:#FEF1DD;" cx="324.972" cy="187.041" r="5.35"/>
				<circle style="fill:#FEF1DD;" cx="301.981" cy="210.031" r="5.35"/>
				<circle style="fill:#FEF1DD;" cx="278.99" cy="233.022" r="5.35"/>
				<circle style="fill:#FEF1DD;" cx="256" cy="256.012" r="5.35"/>
				<circle style="fill:#FEF1DD;" cx="445.745" cy="100.608" r="5.35"/>
				<circle style="fill:#FEF1DD;" cx="422.754" cy="123.598" r="5.35"/>
				<circle style="fill:#FEF1DD;" cx="399.764" cy="146.589" r="5.35"/>
				<circle style="fill:#FEF1DD;" cx="376.773" cy="169.579" r="5.35"/>
				<circle style="fill:#FEF1DD;" cx="353.783" cy="192.57" r="5.35"/>
				<circle style="fill:#FEF1DD;" cx="330.792" cy="215.561" r="5.35"/>
				<circle style="fill:#FEF1DD;" cx="307.801" cy="238.551" r="5.35"/>
				<circle style="fill:#FEF1DD;" cx="284.811" cy="261.542" r="5.35"/>
				<circle style="fill:#FEF1DD;" cx="454.33" cy="132.474" r="5.35"/>
				<circle style="fill:#FEF1DD;" cx="431.339" cy="155.465" r="5.35"/>
				<circle style="fill:#FEF1DD;" cx="408.349" cy="178.455" r="5.35"/>
				<circle style="fill:#FEF1DD;" cx="385.358" cy="201.446" r="5.35"/>
				<circle style="fill:#FEF1DD;" cx="362.368" cy="224.437" r="5.35"/>
				<circle style="fill:#FEF1DD;" cx="339.377" cy="247.427" r="5.35"/>
				<circle style="fill:#FEF1DD;" cx="316.386" cy="270.418" r="5.35"/>
				<circle style="fill:#FEF1DD;" cx="293.396" cy="293.408" r="5.35"/>
			</g>
		</g>
		<g style="opacity:0.5;">
			<path style="fill:#EACCA1;" d="M360.367,228.588l-76.942-76.941c-7.202-7.201-18.878-7.201-26.079,0L151.593,257.4
				c-7.202,7.201-7.202,18.877,0,26.079l76.942,76.943c7.202,7.201,18.878,7.201,26.079,0l105.753-105.755
				C367.568,247.466,367.568,235.791,360.367,228.588z"/>
			<path style="fill:#D2A498;" d="M367.281,226.648c-0.303-0.379-0.681-0.755-0.983-1.058l-43.423-43.423l-30.411-30.336
				l-6.128-6.128c-0.303-0.303-0.681-0.606-0.984-0.909c-0.832-0.755-1.74-1.437-2.572-1.965l-0.908-0.53
				c-8.775-5.221-20.199-3.858-27.461,3.404L145.626,254.486c-7.414,7.491-8.624,19.367-2.875,28.217
				c0.605,0.984,1.286,1.891,2.042,2.724c0.303,0.303,0.605,0.682,0.908,0.984l6.052,6.051l30.411,30.411l37.371,37.371l6.052,6.052
				c0.302,0.303,0.681,0.681,1.059,0.909c8.851,7.868,22.393,7.565,30.865-0.909l108.785-108.708
				c4.388-4.388,6.582-10.213,6.582-15.963C372.879,236.255,370.988,230.884,367.281,226.648z M234.44,357.447l-79.887-79.887
				c-3.934-3.934-3.934-10.363,0-14.297l108.709-108.71c3.858-3.858,10.364-3.858,14.222,0l26.553,26.629l26.78,26.705l3.783,3.858
				l22.846,22.771c1.891,1.891,2.95,4.388,2.95,7.035c0,2.724-1.059,5.297-3.026,7.188L248.586,357.523
				c-1.816,1.891-4.388,2.951-7.035,2.951C238.827,360.474,236.331,359.414,234.44,357.447z"/>
		</g>
	</g>
	<path style="opacity:0.04;fill:#040000;" d="M491.196,68.009c-5.75-9.381-12.709-18.307-20.804-26.402h0L41.608,470.392
		c8.246,8.246,17.172,15.281,26.704,21.031c3.177,1.967,6.431,3.783,9.759,5.447c16.643,8.549,34.647,13.542,52.879,15.13
		l75.499-75.499l69.522-69.598L418.95,224.075l69.523-69.598L512,131.027c-1.74-20.955-8.095-41.532-19.14-60.143
		C492.331,69.901,491.801,68.992,491.196,68.009z"/>
</g>
</svg>