<?xml version="1.0" encoding="iso-8859-1"?>

<!DOCTYPE svg PUBLIC "-//W3C//DTD SVG 1.1//EN" "http://www.w3.org/Graphics/SVG/1.1/DTD/svg11.dtd">
<!-- Uploaded to: SVG Repo, www.svgrepo.com, Generator: SVG Repo Mixer Tools -->
<svg height="800px" width="800px" version="1.1" id="_x35_" xmlns="http://www.w3.org/2000/svg" xmlns:xlink="http://www.w3.org/1999/xlink" 
	 viewBox="0 0 512 512"  xml:space="preserve">
<g>
	<g>
		<g>
			<polygon style="fill:#695F56;" points="114.247,283.197 55.024,223.98 55.024,186.051 30.796,186.051 30.796,234.016 
				97.119,300.332 			"/>
			<polygon style="fill:#695F56;" points="104.752,405.491 37.409,463.418 37.409,512 61.631,512 61.631,474.532 120.544,423.85 			
				"/>
			<polygon style="fill:#695F56;" points="71.528,318.408 0,354.816 0,410.69 24.229,410.69 24.229,369.668 82.517,339.998 			"/>
		</g>
		<g>
			<polygon style="fill:#544C45;" points="297.022,280.999 356.238,221.775 356.238,183.847 380.46,183.847 380.46,231.804 
				314.144,298.127 			"/>
			<polygon style="fill:#544C45;" points="306.524,405.491 373.86,463.418 373.86,512 349.625,512 349.625,474.532 290.718,423.85 
							"/>
			<polygon style="fill:#544C45;" points="339.728,318.408 411.256,354.816 411.256,410.69 387.041,410.69 387.041,369.668 
				328.739,339.998 			"/>
		</g>
	</g>
	<g>
		<path style="fill:#4F463E;" d="M355.402,299.845c0-41.357-16.773-78.806-43.871-105.904
			c-19.465-19.458-44.259-33.586-72.008-40.001c-10.884-2.534-12.424-21.478-12.424-40.568c0-12.621-1.257-24.67,16.418-33.514
			c23.281-11.64,77.858-33.961,79.478-76.47c-9.614,9.785-22.998,15.846-37.798,15.846c-15.846,0-30.065-6.956-39.785-17.965
			c0-0.427-0.026-0.842-0.026-1.269c-4.54,5.744-10.252,10.515-16.76,13.989c-6.962,3.356-14.753,5.245-22.998,5.245v280.61H355.402
			z"/>
		<path style="fill:#756B61;" d="M205.628,19.234c-8.239,0-16.036-1.889-22.985-5.245c-6.508-3.474-12.226-8.245-16.76-13.989
			c-0.007,0.427-0.026,0.842-0.026,1.269c-9.733,11.009-23.94,17.965-39.785,17.965c-14.806,0-28.19-6.061-37.811-15.846
			c1.625,42.509,56.203,64.829,79.484,76.47c17.675,8.844,16.412,20.893,16.412,33.514c0,19.089-1.534,38.034-12.411,40.568
			c-27.756,6.415-52.544,20.544-72.008,40.001c-27.105,27.098-43.871,64.546-43.871,105.904h149.761V19.234z"/>
		<path style="fill:#7F6E58;" d="M55.867,299.845v57.262c0,41.351,16.767,78.786,43.871,105.891
			c27.097,27.111,64.533,43.864,105.89,43.864V299.845H55.867z"/>
		<path style="fill:#695A48;" d="M205.628,299.845v207.016c41.357,0,78.799-16.753,105.903-43.864
			c27.098-27.105,43.871-64.539,43.871-105.891v-57.262H205.628z"/>
	</g>
	<g>
		<polygon style="fill:#4F463E;" points="184.321,256.52 184.321,199.264 205.628,216.571 205.628,256.52 		"/>
		<polygon style="fill:#59524C;" points="226.942,256.52 226.942,199.264 205.628,216.571 205.628,256.52 		"/>
	</g>
	<polygon style="fill:#B08B63;" points="222.474,300.023 205.628,329.186 188.789,300.023 	"/>
	<g style="opacity:0.09;">
		<path style="fill:#E6E6E5;" d="M143.273,191.553c-2.31,0-4.659,0.566-6.837,1.751c-7.179,3.928-14.148,9.113-20.78,15.214
			c-9.91,9.153-19.044,20.327-25.979,32.605c-3.448,6.147-6.35,12.576-8.43,19.241c-2.073,6.659-3.336,13.582-3.343,20.636
			c0,28.381,0,87.84,0,105.469c0.007,3.717,0.579,7.291,1.494,10.746c1.618,6.067,4.284,11.89,7.64,17.707
			c5.06,8.692,11.746,17.359,19.504,25.709c7.745,8.337,16.569,16.319,25.953,23.36c2.586,1.928,5.593,2.862,8.587,2.862
			c4.349,0,8.653-1.98,11.463-5.725c4.744-6.323,3.467-15.299-2.857-20.044c-12.133-9.08-23.557-20.438-31.5-31.026
			c-3.988-5.271-7.093-10.351-9.041-14.602c-0.974-2.125-1.664-4.02-2.073-5.58c-0.421-1.54-0.533-2.731-0.533-3.408
			c0-17.629,0-77.089,0-105.469c-0.02-4.777,1.204-10.522,3.639-16.602c3.612-9.1,9.942-18.826,17.286-27.084
			c3.672-4.132,7.587-7.923,11.476-11.133c3.882-3.212,7.745-5.863,11.2-7.739c6.949-3.784,9.502-12.483,5.712-19.425
			C153.262,194.257,148.346,191.553,143.273,191.553"/>
	</g>
</g>
</svg>