<?xml version="1.0" encoding="iso-8859-1"?>
<!-- Uploaded to: SVG Repo, www.svgrepo.com, Generator: SVG Repo Mixer Tools -->
<svg version="1.1" id="Layer_1" xmlns="http://www.w3.org/2000/svg" xmlns:xlink="http://www.w3.org/1999/xlink" 
	 viewBox="0 0 512 512" xml:space="preserve">
<path style="fill:#797781;" d="M409.6,512H102.4c-14.08,0-25.6-11.52-25.6-25.6V25.6C76.8,11.52,88.32,0,102.4,0h307.2
	c14.08,0,25.6,11.52,25.6,25.6v460.8C435.2,500.48,423.68,512,409.6,512z"/>
<path style="fill:#58575D;" d="M409.6,0H368c14.08,0,25.6,11.52,25.6,25.6v460.8c0,14.08-11.52,25.6-25.6,25.6h41.6
	c14.08,0,25.6-11.52,25.6-25.6V25.6C435.2,11.52,423.68,0,409.6,0z"/>
<path style="fill:#EDEDED;" d="M172.8,256h-38.4c-3.52,0-6.4-2.88-6.4-6.4v-38.4c0-3.52,2.88-6.4,6.4-6.4h38.4
	c3.52,0,6.4,2.88,6.4,6.4v38.4C179.2,253.12,176.32,256,172.8,256z"/>
<path style="fill:#D8D8DA;" d="M172.8,204.8h-25.6c3.52,0,6.4,2.88,6.4,6.4v38.4c0,3.52-2.88,6.4-6.4,6.4h25.6
	c3.52,0,6.4-2.88,6.4-6.4v-38.4C179.2,207.68,176.32,204.8,172.8,204.8z"/>
<path style="fill:#EDEDED;" d="M275.2,256h-38.4c-3.52,0-6.4-2.88-6.4-6.4v-38.4c0-3.52,2.88-6.4,6.4-6.4h38.4
	c3.52,0,6.4,2.88,6.4,6.4v38.4C281.6,253.12,278.72,256,275.2,256z"/>
<path style="fill:#D8D8DA;" d="M275.2,204.8h-25.6c3.52,0,6.4,2.88,6.4,6.4v38.4c0,3.52-2.88,6.4-6.4,6.4h25.6
	c3.52,0,6.4-2.88,6.4-6.4v-38.4C281.6,207.68,278.72,204.8,275.2,204.8z"/>
<path style="fill:#EDEDED;" d="M377.6,256h-38.4c-3.52,0-6.4-2.88-6.4-6.4v-38.4c0-3.52,2.88-6.4,6.4-6.4h38.4
	c3.52,0,6.4,2.88,6.4,6.4v38.4C384,253.12,381.12,256,377.6,256z"/>
<path style="fill:#D8D8DA;" d="M377.6,204.8H352c3.52,0,6.4,2.88,6.4,6.4v38.4c0,3.52-2.88,6.4-6.4,6.4h25.6
	c3.52,0,6.4-2.88,6.4-6.4v-38.4C384,207.68,381.12,204.8,377.6,204.8z"/>
<path style="fill:#EDEDED;" d="M172.8,358.4h-38.4c-3.52,0-6.4-2.88-6.4-6.4v-38.4c0-3.52,2.88-6.4,6.4-6.4h38.4
	c3.52,0,6.4,2.88,6.4,6.4V352C179.2,355.52,176.32,358.4,172.8,358.4z"/>
<path style="fill:#D8D8DA;" d="M172.8,307.2h-25.6c3.52,0,6.4,2.88,6.4,6.4V352c0,3.52-2.88,6.4-6.4,6.4h25.6
	c3.52,0,6.4-2.88,6.4-6.4v-38.4C179.2,310.08,176.32,307.2,172.8,307.2z"/>
<path style="fill:#EDEDED;" d="M275.2,358.4h-38.4c-3.52,0-6.4-2.88-6.4-6.4v-38.4c0-3.52,2.88-6.4,6.4-6.4h38.4
	c3.52,0,6.4,2.88,6.4,6.4V352C281.6,355.52,278.72,358.4,275.2,358.4z"/>
<path style="fill:#D8D8DA;" d="M275.2,307.2h-25.6c3.52,0,6.4,2.88,6.4,6.4V352c0,3.52-2.88,6.4-6.4,6.4h25.6
	c3.52,0,6.4-2.88,6.4-6.4v-38.4C281.6,310.08,278.72,307.2,275.2,307.2z"/>
<path style="fill:#EDEDED;" d="M377.6,358.4h-38.4c-3.52,0-6.4-2.88-6.4-6.4v-38.4c0-3.52,2.88-6.4,6.4-6.4h38.4
	c3.52,0,6.4,2.88,6.4,6.4V352C384,355.52,381.12,358.4,377.6,358.4z"/>
<path style="fill:#D8D8DA;" d="M377.6,307.2H352c3.52,0,6.4,2.88,6.4,6.4V352c0,3.52-2.88,6.4-6.4,6.4h25.6c3.52,0,6.4-2.88,6.4-6.4
	v-38.4C384,310.08,381.12,307.2,377.6,307.2z"/>
<path style="fill:#EDEDED;" d="M172.8,460.8h-38.4c-3.52,0-6.4-2.88-6.4-6.4V416c0-3.52,2.88-6.4,6.4-6.4h38.4
	c3.52,0,6.4,2.88,6.4,6.4v38.4C179.2,457.92,176.32,460.8,172.8,460.8z"/>
<path style="fill:#D8D8DA;" d="M172.8,409.6h-25.6c3.52,0,6.4,2.88,6.4,6.4v38.4c0,3.52-2.88,6.4-6.4,6.4h25.6
	c3.52,0,6.4-2.88,6.4-6.4V416C179.2,412.48,176.32,409.6,172.8,409.6z"/>
<path style="fill:#EDEDED;" d="M275.2,460.8h-38.4c-3.52,0-6.4-2.88-6.4-6.4V416c0-3.52,2.88-6.4,6.4-6.4h38.4
	c3.52,0,6.4,2.88,6.4,6.4v38.4C281.6,457.92,278.72,460.8,275.2,460.8z"/>
<path style="fill:#D8D8DA;" d="M275.2,409.6h-25.6c3.52,0,6.4,2.88,6.4,6.4v38.4c0,3.52-2.88,6.4-6.4,6.4h25.6
	c3.52,0,6.4-2.88,6.4-6.4V416C281.6,412.48,278.72,409.6,275.2,409.6z"/>
<path style="fill:#EDEDED;" d="M377.6,460.8h-38.4c-3.52,0-6.4-2.88-6.4-6.4V416c0-3.52,2.88-6.4,6.4-6.4h38.4
	c3.52,0,6.4,2.88,6.4,6.4v38.4C384,457.92,381.12,460.8,377.6,460.8z"/>
<path style="fill:#D8D8DA;" d="M377.6,409.6H352c3.52,0,6.4,2.88,6.4,6.4v38.4c0,3.52-2.88,6.4-6.4,6.4h25.6
	c3.52,0,6.4-2.88,6.4-6.4V416C384,412.48,381.12,409.6,377.6,409.6z"/>
<rect x="128" y="51.2" style="fill:#95D5A7;" width="256" height="102.4"/>
<polygon style="fill:#6DC180;" points="128,51.2 128,89.6 345.6,89.6 345.6,153.6 384,153.6 384,51.2 "/>
<path style="fill:#88888F;" d="M384,163.2H128c-5.302,0-9.6-4.297-9.6-9.6V51.2c0-5.303,4.298-9.6,9.6-9.6h256
	c5.303,0,9.6,4.297,9.6,9.6v102.4C393.6,158.903,389.303,163.2,384,163.2z M137.6,144h236.8V60.8H137.6V144z"/>
</svg>