<?xml version="1.0" encoding="iso-8859-1"?>
<!-- Uploaded to: SVG Repo, www.svgrepo.com, Generator: SVG Repo Mixer Tools -->
<svg height="800px" width="800px" version="1.1" id="Layer_1" xmlns="http://www.w3.org/2000/svg" xmlns:xlink="http://www.w3.org/1999/xlink" 
	 viewBox="0 0 512 512" xml:space="preserve">
<g>
	<path style="fill:#A4E276;" d="M372.364,232.727h-93.091v-93.091c0-12.853-10.42-23.273-23.273-23.273
		c-12.853,0-23.273,10.42-23.273,23.273v93.091h-93.091c-12.853,0-23.273,10.42-23.273,23.273c0,12.853,10.42,23.273,23.273,23.273
		h93.091v93.091c0,12.853,10.42,23.273,23.273,23.273c12.853,0,23.273-10.42,23.273-23.273v-93.091h93.091
		c12.853,0,23.273-10.42,23.273-23.273C395.636,243.147,385.216,232.727,372.364,232.727z"/>
	<path style="fill:#A4E276;" d="M488.727,310.303c-12.853,0-23.273,10.42-23.273,23.273v131.879H333.576
		c-12.853,0-23.273,10.42-23.273,23.273S320.723,512,333.576,512h155.152C501.58,512,512,501.58,512,488.727V333.576
		C512,320.723,501.58,310.303,488.727,310.303z"/>
	<path style="fill:#A4E276;" d="M488.727,0H333.576c-12.853,0-23.273,10.42-23.273,23.273c0,12.854,10.42,23.273,23.273,23.273
		h131.879v131.879c0,12.853,10.42,23.273,23.273,23.273S512,191.277,512,178.424V23.273C512,10.42,501.58,0,488.727,0z"/>
</g>
<path style="fill:#69A15F;" d="M0,23.273C0,10.42,10.42,0,23.273,0h155.152c12.853,0,23.273,10.42,23.273,23.273
	c0,12.854-10.42,23.273-23.273,23.273H46.545v131.879c0,12.853-10.42,23.273-23.273,23.273S0,191.277,0,178.424V23.273z
	 M178.424,512H23.273C10.42,512,0,501.58,0,488.727V333.576c0-12.853,10.42-23.273,23.273-23.273s23.273,10.42,23.273,23.273
	v131.879h131.879c12.853,0,23.273,10.42,23.273,23.273S191.277,512,178.424,512z"/>
<g>
	<path style="fill:#64C37D;" d="M23.273,201.697c12.853,0,23.273-10.42,23.273-23.273V46.545h131.879
		c12.853,0,23.273-10.418,23.273-23.273C201.697,10.42,191.277,0,178.424,0H23.273C10.42,0,0,10.42,0,23.273v155.152
		C0,191.277,10.42,201.697,23.273,201.697z"/>
	<path style="fill:#64C37D;" d="M178.424,465.455H46.545V333.576c0-12.853-10.42-23.273-23.273-23.273S0,320.723,0,333.576v155.152
		C0,501.58,10.42,512,23.273,512h155.152c12.853,0,23.273-10.42,23.273-23.273S191.277,465.455,178.424,465.455z"/>
	<path style="fill:#64C37D;" d="M232.727,139.636v93.091h-93.091c-12.853,0-23.273,10.42-23.273,23.273
		c0,12.853,10.42,23.273,23.273,23.273h93.091v93.091c0,12.853,10.42,23.273,23.273,23.273V116.364
		C243.147,116.364,232.727,126.784,232.727,139.636z"/>
</g>
</svg>