<?xml version="1.0" encoding="iso-8859-1"?>
<!-- Uploaded to: SVG Repo, www.svgrepo.com, Generator: SVG Repo Mixer Tools -->
<svg height="800px" width="800px" version="1.1" id="Layer_1" xmlns="http://www.w3.org/2000/svg" xmlns:xlink="http://www.w3.org/1999/xlink" 
	 viewBox="0 0 512 512" xml:space="preserve">
<path style="fill:#6DC82A;" d="M495.304,512H16.696C7.479,512,0,504.527,0,495.304V16.696C0,7.473,7.479,0,16.696,0h478.609
	C504.521,0,512,7.473,512,16.696v478.609C512,504.527,504.521,512,495.304,512z"/>
<path style="fill:#61B325;" d="M495.304,0H256v512h239.304c9.217,0,16.696-7.473,16.696-16.696V16.696
	C512,7.473,504.521,0,495.304,0z"/>
<path style="fill:#FFFFFF;" d="M183.652,445.217H116.87c-9.217,0-16.696-7.473-16.696-16.696V83.478
	c0-9.223,7.479-16.696,16.696-16.696h66.783c9.217,0,16.696,7.473,16.696,16.696s-7.479,16.696-16.696,16.696h-50.087v311.652
	h50.087c9.217,0,16.696,7.473,16.696,16.696S192.869,445.217,183.652,445.217z"/>
<path style="fill:#FFE6B3;" d="M395.13,445.217h-66.783c-9.217,0-16.696-7.473-16.696-16.696s7.479-16.696,16.696-16.696h50.087
	V100.174h-50.087c-9.217,0-16.696-7.473-16.696-16.696s7.479-16.696,16.696-16.696h66.783c9.217,0,16.696,7.473,16.696,16.696
	v345.043C411.826,437.744,404.348,445.217,395.13,445.217z"/>
</svg>