<?xml version="1.0" encoding="iso-8859-1"?>
<!-- Uploaded to: SVG Repo, www.svgrepo.com, Generator: SVG Repo Mixer Tools -->
<svg version="1.1" id="Layer_1" xmlns="http://www.w3.org/2000/svg" xmlns:xlink="http://www.w3.org/1999/xlink" 
	 viewBox="0 0 512 512" xml:space="preserve">
<path style="fill:#00A1A7;" d="M229.768,256c0,0.07,0.005,0.138,0.005,0.209c0,49.485-40.115,89.6-89.6,89.6s-89.6-40.115-89.6-89.6
	c0-0.07,0.005-0.138,0.005-0.209H0c0,77.763,63.037,140.8,140.8,140.8S281.6,333.763,281.6,256H229.768z"/>
<path style="fill:#00D7DF;" d="M371.2,115.2c-77.763,0-140.8,63.037-140.8,140.8h51.2c0-49.485,40.115-89.6,89.6-89.6
	s89.6,40.115,89.6,89.6H512C512,178.237,448.961,115.2,371.2,115.2z"/>
<rect x="224.832" y="224.832" style="fill:#FF5023;" width="62.336" height="62.335"/>
<rect x="224.832" y="224.832" style="fill:#D80027;" width="31.168" height="62.335"/>
<circle style="fill:#565659;" cx="25.6" cy="256" r="25.6"/>
<circle style="fill:#818085;" cx="486.4" cy="256" r="25.6"/>
</svg>