<?xml version="1.0" encoding="utf-8"?><!-- Uploaded to: SVG Repo, www.svgrepo.com, Generator: SVG Repo Mixer Tools -->
<svg fill="#000000" width="800px" height="800px" viewBox="0 0 24 24" id="bracket-2" data-name="Flat Color" xmlns="http://www.w3.org/2000/svg" class="icon flat-color"><path id="secondary" d="M17,22H15a1,1,0,0,1,0-2h2V14a3,3,0,0,1,.77-2A3,3,0,0,1,17,10V4H15a1,1,0,0,1,0-2h2a2,2,0,0,1,2,2v6a1,1,0,0,0,1,1,1,1,0,0,1,0,2,1,1,0,0,0-1,1v6A2,2,0,0,1,17,22Z" style="fill: rgb(44, 169, 188);"></path><path id="primary" d="M9,22H7a2,2,0,0,1-2-2V14a1,1,0,0,0-1-1,1,1,0,0,1,0-2,1,1,0,0,0,1-1V4A2,2,0,0,1,7,2H9A1,1,0,0,1,9,4H7v6a3,3,0,0,1-.77,2A3,3,0,0,1,7,14v6H9a1,1,0,0,1,0,2Z" style="fill: rgb(0, 0, 0);"></path></svg>