<?xml version="1.0" encoding="utf-8"?>
<!-- Uploaded to: SVG Repo, www.svgrepo.com, Generator: SVG Repo Mixer Tools -->
<svg width="800px" height="800px" viewBox="0 0 1024 1024" class="icon"  version="1.1" xmlns="http://www.w3.org/2000/svg"><path d="M832 320c0-46.933333-38.4-85.333333-85.333333-85.333333h-128c-14.933333 0-23.466667-17.066667-14.933334-29.866667 12.8-21.333333 19.2-46.933333 12.8-74.666667-8.533333-42.666667-40.533333-76.8-81.066666-85.333333C465.066667 29.866667 405.333333 83.2 405.333333 149.333333c0 21.333333 6.4 38.4 14.933334 55.466667 8.533333 12.8 0 29.866667-17.066667 29.866667h-128c-46.933333 0-85.333333 38.4-85.333333 85.333333v149.333333c0 14.933333 17.066667 23.466667 29.866666 14.933334 21.333333-12.8 46.933333-19.2 74.666667-12.8 42.666667 8.533333 76.8 40.533333 85.333333 81.066666 14.933333 68.266667-38.4 130.133333-104.533333 130.133334-21.333333 0-38.4-6.4-55.466667-14.933334-10.666667-8.533333-27.733333 0-27.733333 14.933334v128c0 46.933333 38.4 85.333333 85.333333 85.333333h469.333334c46.933333 0 85.333333-38.4 85.333333-85.333333V320z" fill="#8BC34A" /></svg>