<?xml version="1.0" encoding="iso-8859-1"?>
<!-- Uploaded to: SVG Repo, www.svgrepo.com, Generator: SVG Repo Mixer Tools -->
<svg height="800px" width="800px" version="1.1" id="Layer_1" xmlns="http://www.w3.org/2000/svg" xmlns:xlink="http://www.w3.org/1999/xlink" 
	 viewBox="0 0 511.843 511.843" xml:space="preserve">
<g>
	<path style="fill:#9ED36A;" d="M418.165,194.234c0,0-28.991-166.449-120.557-179.195c-56.14-7.81-108.952,19.213-116.855,75.321
		l0,0c-7.732,56.124,30.225,81.709,90.191,75.977C362.979,157.558,418.165,194.234,418.165,194.234z"/>
	<path style="fill:#9ED36A;" d="M269.961,475.602c0,0,158.639,58.092,215.465-14.824c34.833-44.705,37.832-103.952-6.795-138.848
		l0,0c-44.752-34.756-85.88-14.699-110.919,40.112C329.318,446.126,269.961,475.602,269.961,475.602z"/>
	<path style="fill:#9ED36A;" d="M100.808,204.106c0,0-129.632,108.341-94.893,194.003c21.29,52.531,71.103,84.756,123.65,63.543l0,0
		c52.468-21.369,55.655-67.026,20.712-116.105C96.653,270.242,100.808,204.106,100.808,204.106z"/>
</g>
<g>
	<path style="fill:#8AC054;" d="M304.387,89.859l0.016-0.016c-2.686-1.593-66.558-38.738-127.398-14.886
		c-38.52,15.12-66.402,50.859-82.865,106.249c0,0.016-0.016,0.031-0.016,0.047s0,0.031-0.016,0.031l0,0
		c-0.953,3.265-0.359,6.936,1.952,9.778c3.718,4.561,10.435,5.249,15.011,1.531c1.718-1.406,2.89-3.249,3.483-5.233l0,0
		c14.48-48.75,38.066-79.882,70.119-92.503c51.062-20.087,108.295,12.996,108.874,13.34l0,0c3.733,2.203,8.592,1.984,12.152-0.906
		c4.562-3.717,5.248-10.434,1.531-14.995C306.418,91.281,305.449,90.484,304.387,89.859z"/>
	<path style="fill:#8AC054;" d="M443.251,201.482c0,0-0.016-0.016-0.03-0.031c-0.016-0.016-0.016-0.016-0.031-0.031l0,0
		c-2.344-2.468-5.812-3.765-9.436-3.187c-5.811,0.937-9.762,6.404-8.825,12.215c0.359,2.203,1.358,4.139,2.78,5.639v0.016
		c34.989,36.911,50.141,72.884,45.049,106.953c-8.123,54.279-65.402,87.301-65.98,87.629l0,0c-3.764,2.141-6.014,6.451-5.295,10.98
		c0.938,5.811,6.42,9.764,12.23,8.826c1.281-0.203,2.453-0.641,3.531-1.234l0,0c2.732-1.531,66.822-38.254,76.586-102.891
		C500.016,285.456,482.989,243.438,443.251,201.482z"/>
	<path style="fill:#8AC054;" d="M252.949,470.884c-2.092-0.796-4.264-0.89-6.279-0.406l0,0
		c-49.454,11.841-88.208,6.967-115.152-14.464c-42.956-34.178-42.909-100.298-42.893-100.953h-0.016
		c0.047-4.344-2.562-8.436-6.857-10.076c-5.498-2.093-11.668,0.672-13.761,6.17c-0.453,1.219-0.672,2.453-0.688,3.672l0,0
		c-0.047,3.123-0.281,77.008,50.813,117.775c21.29,16.996,48.032,25.523,79.882,25.523c16.495,0,34.38-2.295,53.577-6.888h0.016
		c0.016-0.016,0.031-0.016,0.031-0.016h0.016c3.312-0.797,6.186-3.155,7.483-6.576C261.213,479.147,258.448,472.977,252.949,470.884
		z"/>
</g>
</svg>