<?xml version="1.0" encoding="iso-8859-1"?>
<!-- Uploaded to: SVG Repo, www.svgrepo.com, Generator: SVG Repo Mixer Tools -->
<svg height="800px" width="800px" version="1.1" id="Layer_1" xmlns="http://www.w3.org/2000/svg" xmlns:xlink="http://www.w3.org/1999/xlink" 
	 viewBox="0 0 512 512" xml:space="preserve">
<path style="fill:#00D7DF;" d="M489.739,512H22.261c-9.217,0-16.696-7.473-16.696-16.696V16.696C5.565,7.473,13.044,0,22.261,0
	h467.478c9.217,0,16.696,7.473,16.696,16.696v478.609C506.435,504.527,498.956,512,489.739,512z"/>
<path style="fill:#00B6BD;" d="M489.739,0H256v512h233.739c9.217,0,16.696-7.473,16.696-16.696V16.696
	C506.435,7.473,498.956,0,489.739,0z"/>
<path style="fill:#FFFFFF;" d="M450.783,361.739c0-4.625-1.88-8.805-4.919-11.828l-0.006-0.008l-50.609-50.609
	c-6.521-6.521-17.087-6.521-23.609,0c-6.521,6.516-6.521,17.092,0,23.609l22.142,22.141H272.696v-34.888
	c68.858-11.271,122.435-91.081,122.435-187.72c0-9.223-7.479-16.696-16.696-16.696c-9.217,0-16.696,7.473-16.696,16.696
	c0,77.532-38.663,141.833-89.043,153.69V118.217l22.108,22.108c3.261,3.261,7.533,4.892,11.804,4.892s8.544-1.631,11.804-4.892
	c6.521-6.516,6.521-17.092,0-23.609l-50.609-50.609c-6.521-6.521-17.087-6.521-23.609,0l-50.087,50.087
	c-6.521,6.516-6.521,17.092,0,23.609c6.521,6.521,17.087,6.521,23.609,0l21.589-21.586v157.907
	c-50.381-11.857-89.043-76.158-89.043-153.69c0-9.223-7.479-16.696-16.696-16.696s-16.696,7.473-16.696,16.696
	c0,96.639,53.576,176.45,122.435,187.72v34.888h-139.13c-9.217,0-16.696,7.473-16.696,16.696s7.479,16.696,16.696,16.696h139.13
	v50.087c0,9.223,7.479,16.696,16.696,16.696s16.696-7.473,16.696-16.696v-50.087h121.021l-21.554,21.554
	c-6.521,6.516-6.521,17.092,0,23.609c3.261,3.261,7.533,4.892,11.804,4.892s8.544-1.631,11.804-4.892l49.734-49.735
	C448.739,370.818,450.783,366.53,450.783,361.739z"/>
<path style="fill:#FFE6B3;" d="M272.696,428.522v-50.087h121.021l-21.554,21.554c-6.521,6.516-6.521,17.092,0,23.609
	c3.261,3.261,7.533,4.892,11.804,4.892s8.544-1.631,11.804-4.892l49.734-49.735c3.234-3.044,5.278-7.333,5.278-12.123
	c0-4.625-1.88-8.805-4.919-11.828l-0.006-0.008l-50.609-50.609c-6.521-6.521-17.087-6.521-23.609,0
	c-6.521,6.516-6.521,17.092,0,23.609l22.142,22.141H272.696v-34.888c68.858-11.271,122.435-91.081,122.435-187.72
	c0-9.223-7.479-16.696-16.696-16.696c-9.217,0-16.696,7.473-16.696,16.696c0,77.532-38.663,141.833-89.043,153.69V118.217
	l22.108,22.108c3.261,3.261,7.533,4.892,11.804,4.892s8.544-1.631,11.804-4.892c6.521-6.516,6.521-17.092,0-23.609l-50.609-50.609
	c-3.259-3.26-7.531-4.891-11.803-4.891v384C265.217,445.217,272.696,437.744,272.696,428.522z"/>
</svg>