<?xml version="1.0" encoding="utf-8"?><!-- Uploaded to: SVG Repo, www.svgrepo.com, Generator: SVG Repo Mixer Tools -->
<svg fill="#000000" width="800px" height="800px" viewBox="0 0 24 24" id="sigma-square" data-name="Flat Color" xmlns="http://www.w3.org/2000/svg" class="icon flat-color"><rect id="primary" x="2" y="2" width="20" height="20" rx="2" style="fill: rgb(0, 0, 0);"></rect><path id="secondary" d="M16,17H8a1,1,0,0,1-.92-.62,1,1,0,0,1,.21-1.09L10.59,12,7.29,8.71a1,1,0,0,1-.21-1.09A1,1,0,0,1,8,7h8a1,1,0,0,1,0,2H10.41l2.3,2.29a1,1,0,0,1,0,1.42L10.41,15H16a1,1,0,0,1,0,2Z" style="fill: rgb(44, 169, 188);"></path></svg>