<?xml version="1.0" encoding="iso-8859-1"?>
<!-- Uploaded to: SVG Repo, www.svgrepo.com, Generator: SVG Repo Mixer Tools -->
<svg height="800px" width="800px" version="1.1" id="Layer_1" xmlns="http://www.w3.org/2000/svg" xmlns:xlink="http://www.w3.org/1999/xlink" 
	 viewBox="0 0 512 512" xml:space="preserve">
<path style="fill:#FFCD00;" d="M256,512C114.839,512,0,397.156,0,256S114.839,0,256,0s256,114.844,256,256S397.161,512,256,512z"/>
<path style="fill:#FFA733;" d="M512,256C512,114.844,397.161,0,256,0v512C397.161,512,512,397.156,512,256z"/>
<g>
	<path style="fill:#FFFFFF;" d="M322.797,237.332c-26.478,0-52.957-7.697-76.06-23.103c-34.953-23.288-80.115-23.288-115.068,0
		c-7.697,5.121-18.042,3.034-23.157-4.631c-5.116-7.676-3.044-18.047,4.631-23.157c46.206-30.811,105.915-30.811,152.12,0
		c34.953,23.288,80.115,23.288,115.068,0c7.681-5.142,18.036-3.034,23.157,4.631c5.116,7.676,3.044,18.047-4.631,23.157
		C375.754,229.635,349.276,237.332,322.797,237.332z"/>
	<path style="fill:#FFFFFF;" d="M322.797,337.713c-26.478,0-52.957-7.697-76.06-23.103c-34.953-23.288-80.115-23.288-115.068,0
		c-7.697,5.121-18.042,3.034-23.157-4.631c-5.116-7.676-3.044-18.047,4.631-23.157c46.206-30.811,105.915-30.811,152.12,0
		c34.953,23.288,80.115,23.288,115.068,0c7.681-5.142,18.036-3.044,23.157,4.631c5.116,7.676,3.044,18.047-4.631,23.157
		C375.754,330.016,349.276,337.713,322.797,337.713z"/>
</g>
<g>
	<path style="fill:#FFE6B3;" d="M380.332,286.822c-34.953,23.288-80.115,23.288-115.068,0c-3.03-2.022-6.123-3.892-9.263-5.648
		v39.084c20.793,11.627,43.792,17.455,66.797,17.455c26.478,0,52.957-7.697,76.06-23.103c7.676-5.11,9.747-15.481,4.631-23.157
		C398.368,283.778,388.012,281.679,380.332,286.822z"/>
	<path style="fill:#FFE6B3;" d="M380.332,186.442c-34.953,23.288-80.115,23.288-115.068,0c-3.03-2.022-6.123-3.892-9.263-5.648
		v39.084c20.793,11.627,43.792,17.455,66.797,17.455c26.478,0,52.957-7.697,76.06-23.103c7.676-5.11,9.747-15.481,4.631-23.157
		C398.368,183.408,388.012,181.299,380.332,186.442z"/>
</g>
</svg>