<?xml version="1.0" encoding="iso-8859-1"?>
<!-- Uploaded to: SVG Repo, www.svgrepo.com, Generator: SVG Repo Mixer Tools -->
<svg height="800px" width="800px" version="1.1" id="Layer_1" xmlns="http://www.w3.org/2000/svg" xmlns:xlink="http://www.w3.org/1999/xlink" 
	 viewBox="0 0 512 512" xml:space="preserve">
<path style="fill:#FF5023;" d="M256,512C114.839,512,0,397.156,0,256S114.839,0,256,0s256,114.844,256,256S397.161,512,256,512z"/>
<path style="fill:#CD2A00;" d="M512,256C512,114.844,397.161,0,256,0v512C397.161,512,512,397.156,512,256z"/>
<path style="fill:#FFFFFF;" d="M204.752,394.612c-5.408,0-10.72-2.621-13.933-7.469c-5.099-7.686-3-18.047,4.686-23.146
	l164.568-109.165L195.505,145.666c-7.686-5.099-9.785-15.46-4.686-23.146c5.099-7.697,15.455-9.785,23.146-4.686l185.546,123.082
	c4.664,3.098,7.469,8.317,7.469,13.916s-2.805,10.818-7.469,13.916L213.966,391.829
	C211.128,393.709,207.921,394.612,204.752,394.612z"/>
<path style="fill:#FFE6B3;" d="M399.511,240.915l-142.824-94.744v40.079l103.386,68.581l-103.386,68.581v40.079l142.825-94.744
	c4.664-3.098,7.469-8.317,7.469-13.916S404.175,244.013,399.511,240.915z"/>
</svg>