<?xml version="1.0" encoding="iso-8859-1"?>
<!-- Uploaded to: SVG Repo, www.svgrepo.com, Generator: SVG Repo Mixer Tools -->
<svg height="800px" width="800px" version="1.1" id="Layer_1" xmlns="http://www.w3.org/2000/svg" xmlns:xlink="http://www.w3.org/1999/xlink" 
	 viewBox="0 0 473.965 473.965" xml:space="preserve">
<path style="fill:#F6A2A3;" d="M0.006,236.973C0.006,106.09,106.103,0,236.979,0c130.883,0,236.981,106.094,236.981,236.973
	c0,130.887-106.098,236.988-236.981,236.988C106.107,473.961,0.006,367.864,0.006,236.973z"/>
<path style="fill:#E84849;" d="M420.243,148.383c-28.501,30.278-63.977,67.954-132.492,74.218
	c-22.226,2.032-65.63,13.283-91.565,20.011c-3.727,0.965-7.072,1.833-9.916,2.559c-62.701,16-92.096,29.463-130.92,99.333
	c-5.302,9.545-10.761,17.092-16.344,22.683c42.379,64.31,115.201,106.779,197.973,106.779
	c130.883,0,236.981-106.098,236.981-236.988c0-40.931-10.38-79.438-28.647-113.035C437.406,130.183,429.358,138.703,420.243,148.383
	z"/>
<g>
	<circle style="fill:#FDF2F7;" cx="85.756" cy="293.118" r="29.309"/>
	<circle style="fill:#FDF2F7;" cx="235.426" cy="229.172" r="29.309"/>
	<circle style="fill:#FDF2F7;" cx="393.515" cy="170.561" r="29.309"/>
</g>
<path style="fill:#FDF7FA;" d="M443.146,120.167c-0.528-0.928-1.055-1.852-1.594-2.773c-8.733,6.75-17.332,15.846-26.757,25.859
	c-27.637,29.358-62.035,65.892-127.725,71.894c-22.836,2.088-66.611,13.437-92.762,20.217c-3.716,0.965-7.053,1.83-9.889,2.556
	c-63.52,16.209-95.546,30.843-135.609,102.951c-4.629,8.333-9.276,14.952-13.916,19.895c0.662,1.078,1.366,2.122,2.047,3.192
	c0.685,1.078,1.366,2.159,2.065,3.225c5.583-5.586,11.042-13.137,16.344-22.683c38.825-69.87,68.22-83.329,130.92-99.332
	c2.844-0.722,6.189-1.594,9.916-2.559c25.934-6.728,69.339-17.979,91.565-20.011c68.519-6.264,103.991-43.939,132.492-74.218
	c9.115-9.68,17.167-18.2,25.074-24.445C444.62,122.662,443.864,121.428,443.146,120.167z"/>
</svg>