<?xml version="1.0" encoding="iso-8859-1"?>
<!-- Uploaded to: SVG Repo, www.svgrepo.com, Generator: SVG Repo Mixer Tools -->
<svg height="800px" width="800px" version="1.1" id="Layer_1" xmlns="http://www.w3.org/2000/svg" xmlns:xlink="http://www.w3.org/1999/xlink" 
	 viewBox="0 0 512 512" xml:space="preserve">
<path style="fill:#3FC8F2;" d="M491.893,496.567c-0.604-0.407-60.668-41.268-83.859-81.755
	c-19.601-34.221-29.277-81.504-38.636-127.229c-17.268-84.381-35.111-171.601-117.832-173.634c-0.259-0.024-0.523-0.036-0.789-0.036
	h-2.189c-0.169,0-0.335,0.005-0.502,0.015c-0.167-0.01-0.333-0.015-0.502-0.015h-2.189c-0.267,0-0.529,0.012-0.79,0.036
	c-82.708,2.042-100.564,89.258-117.832,173.636c-9.358,45.726-19.034,93.007-38.635,127.228
	c-23.159,40.431-83.256,81.347-83.86,81.756c-3.072,2.077-4.429,5.918-3.343,9.464S5.293,512,9.002,512h478.166
	c3.71,0,6.985-2.422,8.07-5.97C496.324,502.484,494.966,498.643,491.893,496.567z"/>
<path style="fill:#0DAACE;" d="M491.893,496.567c-0.604-0.407-60.668-41.268-83.859-81.755
	c-19.601-34.221-29.277-81.504-38.636-127.229c-17.268-84.381-35.111-171.601-117.832-173.634c-0.259-0.024-0.523-0.036-0.789-0.036
	h-2.189c-0.169,0-0.335,0.005-0.502,0.015c-0.167-0.01-0.333-0.015-0.502-0.015h-2.189c-0.267,0-0.529,0.012-0.79,0.036
	c-5.862,0.145-11.386,0.731-16.618,1.7c68.607,12.703,85.157,93.536,101.2,171.934c9.358,45.727,19.035,93.008,38.636,127.229
	c23.191,40.486,83.255,81.347,83.859,81.755c3.073,2.076,4.431,5.917,3.347,9.464c-1.086,3.547-4.36,5.97-8.07,5.97h40.211
	c3.71,0,6.985-2.422,8.07-5.97C496.324,502.484,494.966,498.643,491.893,496.567z"/>
<g>
	<path style="fill:#0497AF;" d="M248.588,137.542c-4.661,0-8.44-3.778-8.44-8.44v-6.752c0-4.662,3.779-8.44,8.44-8.44
		c4.661,0,8.438,3.778,8.438,8.44v6.752C257.026,133.765,253.249,137.542,248.588,137.542z"/>
	<path style="fill:#0497AF;" d="M248.588,475.962c-4.661,0-8.44-3.778-8.44-8.44v-13.016c0-4.662,3.779-8.44,8.44-8.44
		c4.661,0,8.438,3.778,8.438,8.44v13.016C257.026,472.183,253.249,475.962,248.588,475.962z M248.588,433.66
		c-4.661,0-8.44-3.778-8.44-8.44v-13.016c0-4.662,3.779-8.44,8.44-8.44c4.661,0,8.438,3.778,8.438,8.44v13.016
		C257.026,429.881,253.249,433.66,248.588,433.66z M248.588,391.357c-4.661,0-8.44-3.778-8.44-8.44v-13.016
		c0-4.662,3.779-8.44,8.44-8.44c4.661,0,8.438,3.778,8.438,8.44v13.016C257.026,387.58,253.249,391.357,248.588,391.357z
		 M248.588,349.053c-4.661,0-8.44-3.778-8.44-8.44v-13.015c0-4.661,3.779-8.44,8.44-8.44c4.661,0,8.438,3.779,8.438,8.44v13.015
		C257.026,345.276,253.249,349.053,248.588,349.053z M248.588,306.752c-4.661,0-8.44-3.778-8.44-8.44v-13.015
		c0-4.662,3.779-8.44,8.44-8.44c4.661,0,8.438,3.778,8.438,8.44v13.015C257.026,302.973,253.249,306.752,248.588,306.752z
		 M248.588,264.45c-4.661,0-8.44-3.778-8.44-8.44v-13.016c0-4.662,3.779-8.44,8.44-8.44c4.661,0,8.438,3.778,8.438,8.44v13.016
		C257.026,260.671,253.249,264.45,248.588,264.45z M248.588,222.147c-4.661,0-8.44-3.778-8.44-8.44v-13.016
		c0-4.662,3.779-8.44,8.44-8.44c4.661,0,8.438,3.778,8.438,8.44v13.016C257.026,218.37,253.249,222.147,248.588,222.147z
		 M248.588,179.845c-4.661,0-8.44-3.778-8.44-8.44v-13.016c0-4.662,3.779-8.44,8.44-8.44c4.661,0,8.438,3.778,8.438,8.44v13.016
		C257.026,176.067,253.249,179.845,248.588,179.845z"/>
	<path style="fill:#0497AF;" d="M248.588,512c-4.661,0-8.44-3.778-8.44-8.44v-6.752c0-4.662,3.779-8.44,8.44-8.44
		c4.661,0,8.438,3.778,8.438,8.44v6.752C257.026,508.222,253.249,512,248.588,512z"/>
</g>
<path style="fill:#808080;" d="M502.998,512H9.002c-4.661,0-8.44-3.778-8.44-8.44V8.44C0.563,3.778,4.341,0,9.002,0
	s8.44,3.778,8.44,8.44v486.681h485.556c4.662,0,8.44,3.778,8.44,8.44S507.66,512,502.998,512z"/>
</svg>