<?xml version="1.0" encoding="iso-8859-1"?>
<!-- Uploaded to: SVG Repo, www.svgrepo.com, Generator: SVG Repo Mixer Tools -->
<svg height="800px" width="800px" version="1.1" id="Layer_1" xmlns="http://www.w3.org/2000/svg" xmlns:xlink="http://www.w3.org/1999/xlink" 
	 viewBox="0 0 512 512" xml:space="preserve">
<g>
	<path style="fill:#615349;" d="M495.304,456.348c-9.217,0-16.696-7.479-16.696-16.696c0-9.206-7.49-16.696-16.696-16.696H350.609
		c-9.217,0-16.696-7.479-16.696-16.696c0-9.217,7.479-16.696,16.696-16.696h111.304c27.619,0,50.087,22.468,50.087,50.087
		C512,448.869,504.521,456.348,495.304,456.348z"/>
	<path style="fill:#615349;" d="M417.391,356.174h-66.783c-9.217,0-16.696-7.479-16.696-16.696V239.304
		c0-9.217,7.479-16.696,16.696-16.696h66.783c9.217,0,16.696,7.479,16.696,16.696v100.174
		C434.087,348.695,426.608,356.174,417.391,356.174z"/>
</g>
<path style="fill:#EFBE44;" d="M367.304,422.957H116.87C52.324,422.957,0,370.632,0,306.087V139.13
	c0-46.103,37.375-83.478,83.478-83.478h166.957c64.545,0,116.87,52.324,116.87,116.87V422.957z"/>
<path style="fill:#E4A738;" d="M250.435,55.652h-66.783v367.304h183.652V172.522C367.304,107.976,314.98,55.652,250.435,55.652z"/>
<path style="fill:#6E6057;" d="M183.652,356.174c-64.445,0-116.87-52.424-116.87-116.87s52.424-116.87,116.87-116.87
	s116.87,52.424,116.87,116.87S248.097,356.174,183.652,356.174z"/>
<path style="fill:#615349;" d="M300.522,239.304c0-64.445-52.424-116.87-116.87-116.87v233.739
	C248.097,356.174,300.522,303.75,300.522,239.304z"/>
<path style="fill:#DBE9FD;" d="M183.652,155.826c-46.032,0-83.478,37.446-83.478,83.478s37.446,83.478,83.478,83.478
	s83.478-37.446,83.478-83.478S229.684,155.826,183.652,155.826z"/>
<path style="fill:#C5DCFD;" d="M267.13,239.304c0-46.032-37.446-83.478-83.478-83.478v166.957
	C229.684,322.783,267.13,285.336,267.13,239.304z"/>
</svg>