<?xml version="1.0" encoding="UTF-8" standalone="no"?>
<!-- Uploaded to: SVG Repo, www.svgrepo.com, Generator: SVG Repo Mixer Tools -->
<svg width="800px" height="800px" viewBox="0 0 64 64" version="1.1" xmlns="http://www.w3.org/2000/svg" xmlns:xlink="http://www.w3.org/1999/xlink">
    
    <title>com-usb-stock</title>
    <desc>Created with Sketch.</desc>
    <defs>

</defs>
    <g id="General" stroke="none" stroke-width="1" fill="none" fill-rule="evenodd">
        <g id="SLICES-64px" transform="translate(-180.000000, -300.000000)">

</g>
        <g id="ICONS" transform="translate(-175.000000, -295.000000)">
            <g id="com-usb-stick" transform="translate(180.000000, 302.000000)">
                <path d="M20.585,48.458 C15.8,53.234 8.008,53.18 3.29,48.296 C-1.34,43.503 -0.984,35.78 3.733,31.071 L24.869,9.977 C25.657,9.189 26.936,9.189 27.725,9.977 L42.004,24.229 C42.793,25.016 42.793,26.292 42.004,27.079 L20.585,48.458 Z" id="Fill-395" fill="#CC9EC9">

</path>
                <polygon id="Fill-396" fill="#E9EFFA" points="40.5762 1.13686838e-13 29.1522 11.402 40.5762 22.804 52.0002 11.402">

</polygon>
                <polyline id="Stroke-397" stroke="#99A5B7" stroke-width="2" stroke-linecap="round" stroke-linejoin="round" points="29.1523 11.4023 40.5763 0.0003 52.0003 11.4023 40.5763 22.8033">

</polyline>
                <path d="M20.585,48.458 C15.8,53.234 8.008,53.18 3.29,48.296 C-1.34,43.503 -0.984,35.78 3.733,31.071 L24.869,9.977 C25.657,9.189 26.936,9.189 27.725,9.977 L42.004,24.229 C42.793,25.016 42.793,26.292 42.004,27.079 L20.585,48.458 Z" id="Stroke-398" stroke="#9D62AB" stroke-width="2" stroke-linecap="round" stroke-linejoin="round">

</path>
                <polyline id="Stroke-399" stroke="#C0CCDB" stroke-width="2" stroke-linecap="round" stroke-linejoin="round" points="37.7207 11.4023 36.2917 9.9763 39.1487 7.1263 40.5757 8.5513">

</polyline>
                <polyline id="Stroke-400" stroke="#C0CCDB" stroke-width="2" stroke-linecap="round" stroke-linejoin="round" points="42.0039 15.6777 40.5759 14.2517 43.4329 11.4027 44.8599 12.8267">

</polyline>
            </g>
        </g>
    </g>
</svg>