<?xml version="1.0" encoding="iso-8859-1"?>
<!-- Uploaded to: SVG Repo, www.svgrepo.com, Generator: SVG Repo Mixer Tools -->
<svg height="800px" width="800px" version="1.1" id="Layer_1" xmlns="http://www.w3.org/2000/svg" xmlns:xlink="http://www.w3.org/1999/xlink" 
	 viewBox="0 0 502 502" xml:space="preserve">
<g>
	<g>
		<g>
			<path style="fill:#F77E65;" d="M113.641,385.138c-6.502,0-12.83-2.561-17.533-7.263l-78.846-78.846
				c-9.683-9.682-9.683-25.382,0-35.064c9.683-9.683,25.381-9.683,35.064,0l50.861,50.861l62.898-181.295
				c3.462-9.978,12.863-16.667,23.425-16.667h277.695c13.693,0,24.794,11.1,24.794,24.794s-11.101,24.794-24.794,24.794H207.153
				L137.065,368.47c-2.799,8.068-9.553,14.127-17.876,16.039C117.349,384.93,115.487,385.138,113.641,385.138z"/>
			<path d="M113.641,395.138c-9.292,0-18.03-3.62-24.604-10.192L10.191,306.1C3.62,299.529,0,290.791,0,281.496
				c0-9.294,3.62-18.031,10.191-24.604c13.567-13.564,35.641-13.564,49.207,0l39.574,39.574l57.666-166.214
				c4.854-13.991,18.065-23.391,32.873-23.391h277.695c19.186,0,34.794,15.609,34.794,34.795s-15.609,34.794-34.794,34.794H214.268
				l-67.755,195.295c-3.952,11.394-13.33,19.808-25.084,22.508C118.868,394.841,116.25,395.138,113.641,395.138z M34.795,266.71
				c-3.789,0-7.577,1.442-10.462,4.326C21.539,273.829,20,277.544,20,281.496s1.539,7.667,4.333,10.461l78.846,78.846
				c2.795,2.795,6.511,4.335,10.461,4.335c1.107,0,2.223-0.127,3.315-0.377c4.994-1.147,8.981-4.725,10.662-9.569l70.088-202.018
				c1.396-4.024,5.188-6.723,9.448-6.723h260.053c8.158,0,14.794-6.637,14.794-14.794c0-8.158-6.637-14.795-14.794-14.795H189.511
				c-6.296,0-11.913,3.997-13.978,9.946l-62.897,181.294c-1.129,3.254-3.853,5.698-7.209,6.469c-3.357,0.773-6.874-0.239-9.31-2.675
				l-50.861-50.861C42.372,268.152,38.583,266.71,34.795,266.71z"/>
		</g>
	</g>
	<g>
		<path style="fill:#F0EFE4;" d="M378.052,295.134l47.677-47.677c9.683-9.683,9.683-25.381,0-35.064s-25.381-9.683-35.064,0
			l-47.677,47.677l-47.677-47.677c-9.683-9.683-25.381-9.683-35.064,0c-9.683,9.683-9.683,25.381,0,35.064l47.677,47.677
			l-47.677,47.677c-9.683,9.683-9.683,25.381,0,35.064c4.842,4.842,11.187,7.262,17.532,7.262s12.691-2.42,17.532-7.262
			l47.677-47.677l47.677,47.677c4.842,4.842,11.187,7.262,17.532,7.262s12.691-2.42,17.532-7.262c9.683-9.683,9.683-25.381,0-35.064
			L378.052,295.134z"/>
		<path d="M408.196,395.138c-9.293,0-18.031-3.619-24.604-10.191l-40.605-40.605l-40.605,40.605
			c-6.572,6.572-15.31,10.191-24.604,10.191s-18.031-3.619-24.604-10.191c-6.572-6.571-10.191-15.31-10.191-24.604
			c0-9.293,3.619-18.031,10.191-24.604l40.606-40.605l-40.605-40.604c-6.572-6.572-10.191-15.311-10.191-24.604
			c0-9.294,3.619-18.032,10.191-24.604c6.571-6.572,15.309-10.191,24.603-10.191s18.032,3.619,24.604,10.191l40.605,40.605
			l40.605-40.605c6.572-6.572,15.31-10.191,24.603-10.191c9.294,0,18.032,3.619,24.604,10.191
			c6.572,6.571,10.191,15.31,10.191,24.604c0,9.293-3.619,18.031-10.191,24.604l-40.605,40.604l40.605,40.605
			c6.572,6.572,10.191,15.311,10.191,24.604c0,9.294-3.619,18.032-10.191,24.604C426.228,391.52,417.49,395.138,408.196,395.138z
			 M342.987,320.198c2.652,0,5.196,1.054,7.071,2.929l47.676,47.677c2.794,2.795,6.51,4.334,10.461,4.334
			c3.952,0,7.667-1.539,10.461-4.333c2.795-2.795,4.333-6.51,4.333-10.462c0-3.951-1.539-7.667-4.333-10.461l-47.676-47.677
			c-1.875-1.876-2.929-4.419-2.929-7.071s1.054-5.195,2.929-7.071l47.677-47.676c2.794-2.794,4.333-6.51,4.333-10.461
			c0-3.952-1.539-7.667-4.333-10.461c-2.795-2.795-6.51-4.334-10.461-4.334s-7.667,1.539-10.461,4.334l-47.676,47.676
			c-3.905,3.904-10.237,3.904-14.142,0l-47.677-47.676c-2.795-2.795-6.51-4.334-10.461-4.334s-7.667,1.539-10.461,4.334
			c-2.795,2.794-4.333,6.509-4.333,10.461c0,3.951,1.539,7.667,4.333,10.461l47.676,47.676c1.875,1.876,2.929,4.419,2.929,7.071
			s-1.054,5.195-2.929,7.071l-47.677,47.677c-2.794,2.794-4.333,6.51-4.333,10.461c0,3.952,1.539,7.667,4.333,10.461
			c2.795,2.795,6.51,4.334,10.461,4.334s7.667-1.539,10.461-4.334l47.677-47.677C337.792,321.253,340.335,320.198,342.987,320.198z"
			/>
	</g>
	<g>
		<path d="M465.223,151.658h-60.498c-5.523,0-10-4.478-10-10s4.477-10,10-10h60.498c5.523,0,10,4.478,10,10
			S470.746,151.658,465.223,151.658z"/>
	</g>
	<g>
		<path d="M372.988,151.658h-18.843c-5.523,0-10-4.478-10-10s4.477-10,10-10h18.843c5.523,0,10,4.478,10,10
			S378.511,151.658,372.988,151.658z"/>
	</g>
</g>
</svg>