<?xml version="1.0" encoding="iso-8859-1"?>
<!-- Uploaded to: SVG Repo, www.svgrepo.com, Generator: SVG Repo Mixer Tools -->
<svg version="1.1" id="Layer_1" xmlns="http://www.w3.org/2000/svg" xmlns:xlink="http://www.w3.org/1999/xlink" 
	 viewBox="0 0 351.164 351.164" xml:space="preserve">
<g>
	<rect x="42.717" y="61.532" style="fill:#FFDB77;" width="265.73" height="178.188"/>
	<rect x="7.5" y="239.72" style="fill:#13829B;" width="336.164" height="49.912"/>
	<g>
		<path style="fill:#22313F;" d="M343.664,232.22h-27.717V61.532c0-4.143-3.357-7.5-7.5-7.5H42.717c-4.142,0-7.5,3.357-7.5,7.5
			V232.22H7.5c-4.142,0-7.5,3.357-7.5,7.5v49.912c0,4.143,3.358,7.5,7.5,7.5h336.164c4.143,0,7.5-3.357,7.5-7.5V239.72
			C351.164,235.577,347.807,232.22,343.664,232.22z M50.217,69.032h250.73V232.22H50.217V69.032z M336.164,282.132H15V247.22
			c4.787,0,318.209,0,321.164,0V282.132z"/>
		<path style="fill:#22313F;" d="M264.763,108.323H150.568c-3.016,0-5.738,1.807-6.91,4.585l-22.11,52.408l-7.477-19.571
			c-1.11-2.904-3.897-4.823-7.006-4.823H86.401c-4.142,0-7.5,3.357-7.5,7.5s3.358,7.5,7.5,7.5h15.5l12.296,32.184
			c2.405,6.295,11.285,6.477,13.916,0.238l27.431-65.021h109.219c4.143,0,7.5-3.357,7.5-7.5
			C272.263,111.681,268.905,108.323,264.763,108.323z"/>
		<path style="fill:#22313F;" d="M221.684,145.587c-2.93-2.928-7.678-2.928-10.607,0l-9.658,9.658l-9.658-9.658
			c-2.93-2.928-7.678-2.928-10.607,0c-2.929,2.93-2.929,7.678,0,10.607l9.658,9.658l-9.658,9.658c-2.929,2.93-2.929,7.678,0,10.607
			c2.931,2.929,7.678,2.928,10.607,0l9.658-9.658l9.658,9.658c2.931,2.929,7.678,2.928,10.607,0c2.929-2.93,2.929-7.678,0-10.607
			l-9.658-9.658l9.658-9.658C224.613,153.265,224.613,148.517,221.684,145.587z"/>
	</g>
</g>
</svg>