<?xml version="1.0" encoding="iso-8859-1"?>
<!-- Uploaded to: SVG Repo, www.svgrepo.com, Generator: SVG Repo Mixer Tools -->
<svg version="1.1" id="Layer_1" xmlns="http://www.w3.org/2000/svg" xmlns:xlink="http://www.w3.org/1999/xlink" 
	 viewBox="0 0 512 512" xml:space="preserve">
<rect x="97.212" y="444.02" style="fill:#CEE8FA;" width="124.503" height="47.592"/>
<g>
	<path style="fill:#2D527C;" d="M221.711,430.589h-15.467V322.455c0-7.416-6.014-13.431-13.431-13.431s-13.431,6.014-13.431,13.431
		v108.134H97.206c-7.416,0-13.431,6.014-13.431,13.431v47.592c0,7.416,6.014,13.431,13.431,13.431h124.504
		c7.416,0,13.431-6.014,13.431-13.431V444.02C235.141,436.602,229.128,430.589,221.711,430.589z M208.28,478.179h-97.643V457.45
		h97.643V478.179z"/>
	<path style="fill:#2D527C;" d="M125.373,409.497c-7.416,0-13.431-6.014-13.431-13.431V214.281H85.034v21.014
		c0,7.416-6.014,13.431-13.431,13.431H13.431C6.014,248.726,0,242.712,0,235.295v-93.105c0-7.416,6.014-13.431,13.431-13.431h291.08
		c7.416,0,13.431,6.014,13.431,13.431v93.105c0,7.416-6.014,13.431-13.431,13.431h-58.173c-7.416,0-13.431-6.014-13.431-13.431
		v-21.014h-26.664v51.573c0,7.416-6.014,13.431-13.431,13.431s-13.431-6.014-13.431-13.431v-65.003
		c0-7.416,6.014-13.431,13.431-13.431h53.526c7.416,0,13.431,6.014,13.431,13.431v21.014h31.311v-66.243H26.861v66.243h31.311
		v-21.014c0-7.416,6.014-13.431,13.431-13.431h53.77c7.416,0,13.431,6.014,13.431,13.431v195.217
		C138.804,403.484,132.79,409.497,125.373,409.497z"/>
</g>
<path style="fill:#CEE8FA;" d="M498.569,192.099h-93.54v-2.596c0-26.262,89.175-46.752,89.175-109.376
	c0-38.671-33.765-59.737-67.241-59.737c-32.899,0-65.221,20.201-65.221,55.41c0,18.181,11.787,23.196,20.201,23.376
	c10.869,0.232,23.845-1.93,23.665-16.45c-0.196-15.872,10.101-21.645,21.644-21.645c16.161,0,21.934,11.256,21.934,20.49
	c0,36.651-90.906,62.625-90.906,107.933v26.43c0,17.907,0,19.448,27.553,19.448h112.739v-43.283H498.569z"/>
<path style="fill:#2D527C;" d="M498.569,248.811H385.832c-15.308,0-25.058-0.278-32.249-5.754
	c-8.737-6.655-8.737-16.598-8.737-27.123v-26.43c0-30.657,28.978-51.926,54.545-70.693c17.042-12.509,36.361-26.688,36.361-37.242
	c0-7.061-6.178-7.061-8.503-7.061c-3.055,0-5.552,0.678-6.675,1.816c-1.389,1.408-1.561,4.51-1.539,6.235
	c0.132,10.567-4.258,17.162-7.963,20.834c-6.538,6.482-16.141,9.489-29.417,9.209c-16.598-0.356-33.346-11.873-33.346-36.803
	c0-44.714,40.523-68.841,78.653-68.841c39.108,0,80.672,25.645,80.672,73.169c0,45.092-37.29,70.62-64.519,89.259
	c-3.98,2.722-8.821,6.038-13.166,9.282h68.62c7.416,0,13.431,6.014,13.431,13.431v43.282
	C512,242.796,505.986,248.811,498.569,248.811z M371.759,221.56c4.184,0.389,11.041,0.389,14.073,0.389h99.307v-16.42H405.03
	c-7.416,0-13.431-6.014-13.431-13.431v-2.596c0-17.405,16.842-28.934,36.344-42.283c24.764-16.952,52.831-36.166,52.831-67.093
	c0-30.402-27.07-46.308-53.81-46.308c-25.106,0-51.792,14.712-51.792,41.979c0,8.633,3.567,9.873,7.059,9.947
	c6.863,0.157,9.27-1.019,9.819-1.356c0.055-0.218,0.138-0.686,0.129-1.498c-0.163-13.092,4.961-21.062,9.287-25.442
	c6.334-6.412,15.249-9.802,25.786-9.802c23.216,0,35.364,17.065,35.364,33.922c0,24.157-22.989,41.032-47.329,58.896
	c-21.425,15.726-43.577,31.985-43.577,49.038v26.43C371.708,217.771,371.708,219.857,371.759,221.56z"/>
</svg>