<?xml version="1.0" encoding="iso-8859-1"?>
<!-- Uploaded to: SVG Repo, www.svgrepo.com, Generator: SVG Repo Mixer Tools -->
<svg height="800px" width="800px" version="1.1" id="Layer_1" xmlns="http://www.w3.org/2000/svg" xmlns:xlink="http://www.w3.org/1999/xlink" 
	 viewBox="0 0 503.607 503.607" xml:space="preserve">
<g transform="translate(1 1)">
	<path style="fill:#FCC309;" d="M477.426,250.803c0-134.295-101.561-243.41-226.623-243.41S24.18,116.508,24.18,250.803
		s101.561,243.41,226.623,243.41S477.426,385.938,477.426,250.803"/>
	<path style="fill:#FFFFFF;" d="M24.18,250.803c0-134.295,101.561-243.41,226.623-243.41c-134.295,0-243.41,109.115-243.41,243.41
		s109.115,243.41,243.41,243.41C125.741,494.213,24.18,385.938,24.18,250.803"/>
	<path style="fill:#FD9808;" d="M250.803,7.393c125.062,0,226.623,109.115,226.623,243.41s-101.561,243.41-226.623,243.41
		c134.295,0,243.41-109.115,243.41-243.41S385.098,7.393,250.803,7.393"/>
	<path style="fill:#FFDD09;" d="M238.213,460.639c-109.115,0-197.246-94.007-197.246-209.836S129.098,40.967,238.213,40.967
		s197.246,94.007,197.246,209.836S347.328,460.639,238.213,460.639"/>
	<path style="fill:#FD9808;" d="M250.803,40.967c-2.518,0-4.197,0-6.715,0c105.757,4.197,191.37,96.525,191.37,209.836
		s-85.613,206.479-191.37,209.836c2.518,0,4.197,0,6.715,0c115.829,0,209.836-94.007,209.836-209.836S366.633,40.967,250.803,40.967
		"/>
	<path d="M250.803,502.607C112.311,502.607-1,390.134-1,250.803c0-57.075,18.466-111.633,54.557-156.118
		c2.518-3.357,8.393-4.197,11.751-1.679c3.357,2.518,4.197,8.393,1.679,11.751c-33.574,41.967-50.361,92.328-50.361,146.046
		c0,129.259,105.757,235.016,235.016,235.016s235.016-105.757,235.016-235.016S380.062,15.787,250.803,15.787
		c-49.521,0-97.364,15.108-137.652,44.485c-3.357,2.518-9.233,1.679-11.751-1.679c-2.518-3.357-1.679-9.233,1.679-11.751
		C146.725,15.787,197.085-1,250.803-1c138.492,0,251.803,113.311,251.803,251.803S389.295,502.607,250.803,502.607z"/>
	<path d="M91.328,74.541c0-5.036-3.357-8.393-8.393-8.393c-5.036,0-8.393,4.197-8.393,8.393c0,4.197,3.357,8.393,8.393,8.393
		C87.97,82.934,91.328,79.577,91.328,74.541"/>
	<path d="M250.803,469.033c-120.026,0-218.229-97.364-218.229-218.23c0-120.026,98.203-218.229,218.229-218.229
		s218.23,98.203,218.23,218.229C469.033,371.669,370.829,469.033,250.803,469.033z M250.803,49.361
		c-110.793,0-201.443,90.649-201.443,201.443s90.649,201.443,201.443,201.443s201.443-90.649,201.443-201.443
		S361.597,49.361,250.803,49.361z"/>
	<path d="M393.492,259.197H108.115c-5.036,0-8.393-3.357-8.393-8.393s3.357-8.393,8.393-8.393h285.377
		c5.036,0,8.393,3.357,8.393,8.393S398.528,259.197,393.492,259.197z"/>
	<path d="M250.803,401.885c-5.036,0-8.393-3.357-8.393-8.393V108.115c0-5.036,3.357-8.393,8.393-8.393s8.393,3.357,8.393,8.393
		v285.377C259.197,398.528,255.839,401.885,250.803,401.885z"/>
	<path d="M158.475,284.377c-5.036,0-8.393-3.357-8.393-8.393v-50.361c0-5.036,3.357-8.393,8.393-8.393s8.393,3.357,8.393,8.393
		v50.361C166.869,281.02,163.511,284.377,158.475,284.377z"/>
	<path d="M343.131,284.377c-5.036,0-8.393-3.357-8.393-8.393v-50.361c0-5.036,3.357-8.393,8.393-8.393
		c5.036,0,8.393,3.357,8.393,8.393v50.361C351.525,281.02,348.167,284.377,343.131,284.377z"/>
	<path d="M275.984,150.082h-50.361c-5.036,0-8.393-3.357-8.393-8.393c0-5.036,3.357-8.393,8.393-8.393h50.361
		c5.036,0,8.393,3.357,8.393,8.393C284.377,146.725,281.02,150.082,275.984,150.082z"/>
	<path d="M292.77,183.656h-83.934c-5.036,0-8.393-3.357-8.393-8.393s3.357-8.393,8.393-8.393h83.934
		c5.036,0,8.393,3.357,8.393,8.393S297.807,183.656,292.77,183.656z"/>
	<path d="M275.984,217.229h-50.361c-5.036,0-8.393-3.357-8.393-8.393c0-5.036,3.357-8.393,8.393-8.393h50.361
		c5.036,0,8.393,3.357,8.393,8.393C284.377,213.872,281.02,217.229,275.984,217.229z"/>
	<path d="M275.984,368.311h-50.361c-5.036,0-8.393-3.357-8.393-8.393c0-5.036,3.357-8.393,8.393-8.393h50.361
		c5.036,0,8.393,3.357,8.393,8.393C284.377,364.954,281.02,368.311,275.984,368.311z"/>
	<path d="M292.77,334.738h-83.934c-5.036,0-8.393-3.357-8.393-8.393c0-5.036,3.357-8.393,8.393-8.393h83.934
		c5.036,0,8.393,3.357,8.393,8.393C301.164,331.38,297.807,334.738,292.77,334.738z"/>
	<path d="M275.984,301.164h-50.361c-5.036,0-8.393-3.357-8.393-8.393s3.357-8.393,8.393-8.393h50.361
		c5.036,0,8.393,3.357,8.393,8.393S281.02,301.164,275.984,301.164z"/>
</g>
</svg>