<?xml version="1.0" encoding="iso-8859-1"?>

<!DOCTYPE svg PUBLIC "-//W3C//DTD SVG 1.1//EN" "http://www.w3.org/Graphics/SVG/1.1/DTD/svg11.dtd">
<!-- Uploaded to: SVG Repo, www.svgrepo.com, Generator: SVG Repo Mixer Tools -->
<svg height="800px" width="800px" version="1.1" id="_x35_" xmlns="http://www.w3.org/2000/svg" xmlns:xlink="http://www.w3.org/1999/xlink" 
	 viewBox="0 0 512 512"  xml:space="preserve">
<g>
	<polygon style="fill:#E18661;" points="338.221,83.047 173.743,83.047 200.179,0 311.786,0 314.506,8.585 	"/>
	<polygon style="fill:#E18661;" points="455.184,450.339 56.781,450.339 58.906,443.708 64.006,427.813 86.021,358.537 
		425.943,358.537 447.958,427.813 453.059,443.708 	"/>
	<polygon style="fill:#FEFEF5;" points="425.943,358.537 86.021,358.537 115.262,266.735 396.703,266.735 	"/>
	<polygon style="fill:#E18661;" points="396.703,266.735 115.262,266.735 144.503,174.848 367.462,174.848 	"/>
	<polygon style="fill:#FEFEF5;" points="367.462,174.848 144.503,174.848 173.743,83.047 338.221,83.047 	"/>
	<polygon style="fill:#C2705F;" points="455.184,450.339 56.781,450.339 58.906,443.708 64.006,427.813 447.958,427.813 
		453.059,443.708 	"/>
	<path style="fill:#E18661;" d="M511.965,469.209v39.016H0v-39.016c0-14.11,11.39-25.501,25.5-25.501h460.964
		C500.574,443.708,511.965,455.099,511.965,469.209z"/>
	<g style="opacity:0.1;">
		<polygon style="fill:#040000;" points="425.943,358.537 256.025,358.537 256.025,0 311.786,0 314.506,8.585 338.221,83.047 
			367.462,174.848 396.703,266.735 		"/>
		<path style="fill:#040000;" d="M501.982,443.678h-48.935l-5.049-15.85l-22.04-69.29H255.99v149.699H512v-54.542
			C512,448.164,507.515,443.678,501.982,443.678z"/>
	</g>
</g>
</svg>