<?xml version="1.0" encoding="iso-8859-1"?>
<!-- Uploaded to: SVG Repo, www.svgrepo.com, Generator: SVG Repo Mixer Tools -->
<svg version="1.1" id="Layer_1" xmlns="http://www.w3.org/2000/svg" xmlns:xlink="http://www.w3.org/1999/xlink" 
	 viewBox="0 0 509.287 509.287" xml:space="preserve">
<circle style="fill:#71D456;" cx="254.644" cy="254.644" r="254.644"/>
<path style="fill:#646B79;" d="M451.984,223.449H57.303c-8.138,0-14.919,6.781-14.919,14.919v100.705
	c0,8.138,6.781,14.919,14.919,14.919h394.681c8.138,0,14.919-6.781,14.919-14.919V238.368
	C466.903,230.23,460.122,223.449,451.984,223.449z"/>
<rect x="69.171" y="260.747" style="fill:#6EB1E1;" width="171.571" height="56.625"/>
<g>
	<rect x="260.747" y="276.683" style="fill:#DEDEDF;" width="32.89" height="24.074"/>
	<rect x="309.573" y="276.683" style="fill:#DEDEDF;" width="32.89" height="24.074"/>
</g>
<rect x="358.4" y="276.683" style="fill:#F0582F;" width="32.89" height="24.074"/>
<rect x="407.226" y="276.683" style="fill:#FBD303;" width="32.89" height="24.074"/>
<g>
	<rect x="69.51" y="354.331" style="fill:#393D47;" width="55.947" height="9.155"/>
	<rect x="383.83" y="354.331" style="fill:#393D47;" width="55.947" height="9.155"/>
</g>
<polygon style="fill:#F0582F;" points="329.24,159.364 254.644,84.768 180.048,159.364 213.616,159.364 213.616,241.759 
	295.672,241.759 295.672,159.364 "/>
</svg>