<?xml version="1.0" encoding="iso-8859-1"?>
<!-- Uploaded to: SVG Repo, www.svgrepo.com, Generator: SVG Repo Mixer Tools -->
<svg version="1.1" id="Layer_1" xmlns="http://www.w3.org/2000/svg" xmlns:xlink="http://www.w3.org/1999/xlink" 
	 viewBox="0 0 512 512" xml:space="preserve">
<path style="fill:#3B67AA;" d="M437.02,219.839c-18.379-18.379-39.065-33.61-61.398-45.442h68.97v-29.539H67.408v29.539h68.97
	c-22.333,11.832-43.019,27.063-61.398,45.442C26.629,268.19,0,332.478,0,400.857h29.539c0-60.49,23.556-117.359,66.329-160.132
	C138.64,197.952,195.51,174.396,256,174.396s117.359,23.556,160.132,66.329s66.329,99.642,66.329,160.132H512
	C512,332.478,485.371,268.19,437.02,219.839z"/>
<rect x="207.509" y="111.143" style="fill:#E0E0E0;" width="96.976" height="96.976"/>
<rect x="207.509" y="111.143" style="fill:#F1F1F1;" width="48.483" height="96.976"/>
<g>
	<circle style="fill:#FF405F;" cx="50.708" cy="159.626" r="35.938"/>
	<circle style="fill:#FF405F;" cx="461.296" cy="159.626" r="35.938"/>
</g>
<g>
	<path style="fill:#FB788A;" d="M50.707,123.69c-19.847,0-35.938,16.09-35.938,35.938s16.09,35.938,35.938,35.938V123.69z"/>
	<path style="fill:#FB788A;" d="M461.293,123.69c-19.848,0-35.938,16.09-35.938,35.938s16.09,35.938,35.938,35.938V123.69z"/>
</g>
</svg>