<?xml version="1.0" encoding="iso-8859-1"?>
<!-- Uploaded to: SVG Repo, www.svgrepo.com, Generator: SVG Repo Mixer Tools -->
<svg version="1.1" id="Layer_1" xmlns="http://www.w3.org/2000/svg" xmlns:xlink="http://www.w3.org/1999/xlink" 
	 viewBox="0 0 473.931 473.931" xml:space="preserve">
<circle style="fill:#FFC200;" cx="236.966" cy="236.966" r="236.966"/>
<path style="fill:#FFFFFF;" d="M88.672,351.344L73.72,350.7c0.049-1.175,6.694-117.476,163.223-117.476
	c142.299,0,144.192-109.132,144.204-113.776l14.967,0.037c-0.004,1.287-2.118,128.705-159.171,128.705
	C95.157,248.191,88.871,347.131,88.672,351.344z"/>
<path style="fill:#448590;" d="M257.557,260.217c0,0.591-0.475,1.029-1.029,1.029l-38.529-0.528c-0.535-0.03-1.01-0.468-0.999-1.029
	l0.55-38.525c0-0.576,0.456-1.014,1.029-1.01l38.518,0.55c0.554,0,1.003,0.479,0.992,1.029L257.557,260.217z"/>
<path style="fill:#DCDBDC;" d="M101.69,370.408c0,0.569-0.468,1.022-1.04,1.022l-38.854,0.075c-0.554-0.015-1.029-0.468-1.029-1.036
	l-0.052-38.858c0-0.569,0.468-1.036,1.022-1.036l38.862-0.037c0.576-0.022,1.021,0.445,1.029,1.014L101.69,370.408z"/>
<path style="fill:#448590;" d="M61.747,375.246h-0.052c-2.574-0.071-4.673-2.215-4.673-4.778l-0.052-38.854
	c0-2.638,2.137-4.782,4.763-4.782l38.858-0.037l0,0c2.619,0,4.741,2.11,4.774,4.711l0.064,38.899c0,2.634-2.144,4.771-4.782,4.771
	L61.747,375.246z M64.459,334.311l0.045,33.448l33.444-0.067l-0.056-33.414L64.459,334.311z"/>
<path style="fill:#DCDBDC;" d="M406.37,142.613c0,0.528-0.412,0.935-0.939,0.935l-35.326,0.067
	c-0.505-0.011-0.939-0.427-0.939-0.943l-0.041-35.322c0-0.528,0.423-0.947,0.932-0.947l35.322-0.034
	c0.528-0.022,0.932,0.404,0.932,0.92L406.37,142.613z"/>
<g>
	<path style="fill:#448590;" d="M370.064,147.358h-0.045c-2.537-0.056-4.599-2.159-4.599-4.685l-0.041-35.318
		c0-2.589,2.099-4.692,4.673-4.692l35.318-0.034l0,0c2.597,0,4.677,2.092,4.677,4.662l0.06,35.318c0,2.586-2.099,4.681-4.681,4.681
		L370.064,147.358z M372.866,110.142l0.034,29.725l29.721-0.056l-0.049-29.702L372.866,110.142z"/>
	<rect x="90.663" y="238.238" style="fill:#448590;" width="289.986" height="7.484"/>
	<path style="fill:#448590;" d="M390.939,232.846c5.175,6.462,4.105,15.873-2.357,21.044c-6.481,5.156-15.884,4.108-21.047-2.361
		c-5.145-6.473-4.105-15.865,2.369-21.021C376.365,225.348,385.79,226.395,390.939,232.846z"/>
	<path style="fill:#448590;" d="M103.74,232.846c5.182,6.462,4.105,15.873-2.357,21.044c-6.481,5.156-15.884,4.108-21.047-2.361
		c-5.145-6.473-4.105-15.865,2.369-21.021C89.174,225.348,98.599,226.395,103.74,232.846z"/>
</g>
</svg>