<?xml version="1.0" encoding="iso-8859-1"?>
<!-- Uploaded to: SVG Repo, www.svgrepo.com, Generator: SVG Repo Mixer Tools -->
<svg height="800px" width="800px" version="1.1" id="Layer_1" xmlns="http://www.w3.org/2000/svg" xmlns:xlink="http://www.w3.org/1999/xlink" 
	 viewBox="0 0 512 512" xml:space="preserve">
<path style="fill:#FFDB56;" d="M479.862,307.705L361.517,182.987c-2.688-2.835-6.968-3.449-10.348-1.495l-85.645,49.558
	L154.493,71.143c-1.404-2.023-3.621-3.331-6.071-3.583c-2.445-0.25-4.886,0.581-6.672,2.274L3.192,201.352
	c-1.679,1.593-2.63,3.807-2.63,6.121V503.56c0,4.662,3.779,8.44,8.44,8.44h464.738c4.662,0,8.44-3.778,8.44-8.44V313.514
	C482.18,311.352,481.351,309.274,479.862,307.705z"/>
<path style="fill:#FBA806;" d="M440.545,266.27V512h33.196c4.662,0,8.44-3.778,8.44-8.44V313.514c0-2.162-0.829-4.24-2.318-5.809
	L440.545,266.27z"/>
<path style="fill:#F77935;" d="M479.283,394.152L360.936,291.109c-2.959-2.577-7.305-2.773-10.484-0.476l-99.516,71.912
	l-96.15-159.429c-1.292-2.144-3.47-3.602-5.944-3.983c-2.473-0.378-4.989,0.357-6.866,2.012L3.42,323.345
	c-1.816,1.602-2.857,3.908-2.857,6.33V503.56c0,4.662,3.779,8.44,8.44,8.44h464.738c4.662,0,8.44-3.778,8.44-8.44V400.518
	C482.18,398.077,481.122,395.755,479.283,394.152z"/>
<path style="fill:#D9510D;" d="M479.283,394.152l-39.3-34.218V512h33.758c4.662,0,8.44-3.778,8.44-8.44V400.518
	C482.18,398.077,481.122,395.755,479.283,394.152z"/>
<path style="fill:#808080;" d="M502.998,512H9.002c-4.661,0-8.44-3.778-8.44-8.44V8.44C0.563,3.778,4.341,0,9.002,0
	s8.44,3.778,8.44,8.44v486.681h485.556c4.662,0,8.44,3.778,8.44,8.44S507.66,512,502.998,512z"/>
</svg>